<?xml version="1.0" encoding="UTF-8" standalone="no"?>
<!-- Created with Inkscape (http://www.inkscape.org/) -->

<svg
   xmlns:dc="http://purl.org/dc/elements/1.1/"
   xmlns:cc="http://creativecommons.org/ns#"
   xmlns:rdf="http://www.w3.org/1999/02/22-rdf-syntax-ns#"
   xmlns:svg="http://www.w3.org/2000/svg"
   xmlns="http://www.w3.org/2000/svg"
   xmlns:sodipodi="http://sodipodi.sourceforge.net/DTD/sodipodi-0.dtd"
   xmlns:inkscape="http://www.inkscape.org/namespaces/inkscape"
   id="svg3336"
   version="1.1"
   inkscape:version="0.91 r13725"
   width="193.125"
   height="195.9375"
   viewBox="0 0 193.125 195.9375"
   sodipodi:docname="favorit_icon5.svg">
  <metadata
     id="metadata3342">
    <rdf:RDF>
      <cc:Work
         rdf:about="">
        <dc:format>image/svg+xml</dc:format>
        <dc:type
           rdf:resource="http://purl.org/dc/dcmitype/StillImage" />
        <dc:title></dc:title>
      </cc:Work>
    </rdf:RDF>
  </metadata>
  <defs
     id="defs3340" />
  <sodipodi:namedview
     pagecolor="#ffffff"
     bordercolor="#666666"
     borderopacity="1"
     objecttolerance="10"
     gridtolerance="10"
     guidetolerance="10"
     inkscape:pageopacity="0"
     inkscape:pageshadow="2"
     inkscape:window-width="1079"
     inkscape:window-height="825"
     id="namedview3338"
     showgrid="false"
     inkscape:zoom="2.169059"
     inkscape:cx="28.914821"
     inkscape:cy="71.898928"
     inkscape:window-x="364"
     inkscape:window-y="98"
     inkscape:window-maximized="0"
     inkscape:current-layer="svg3336" />
  <g
     id="g3346"
     transform="matrix(1.3738679,0,0,1.3597473,-28.155869,-41.771121)">
    <path
       style="fill:#9ef9fe"
       d="m 105.84695,160.8169 -6.821872,-11.68309 -3.145641,3.67497 c -1.8072,2.1113 -5.811987,4.98815 -9.412171,6.76122 -5.219682,2.57068 -7.553109,3.14109 -13.968072,3.41456 -6.599993,0.28136 -8.414205,0.002 -12.684197,-1.95282 -6.35409,-2.909 -10.744723,-7.31722 -13.78329,-13.83853 -2.006104,-4.30546 -2.407904,-6.53993 -2.421571,-13.46667 l -0.01639,-8.30472 -6.09375,0.5949 c -3.351563,0.32718 -8.097656,0.84912 -10.546875,1.15986 -2.449219,0.31074 -4.446629,0.19422 -4.438688,-0.25893 0.008,-0.45315 6.063256,-4.30597 13.45626,-8.56185 10.851184,-6.24661 14.381239,-8.81801 18.316091,-13.34201 2.680847,-3.08223 8.136621,-7.761768 12.123942,-10.398974 l 7.249675,-4.79491 -2.604647,-23.581828 C 67.160448,30.970906 66.652072,31.536548 80.625,55.590921 c 6.445312,11.095594 11.859714,20.036561 12.032003,19.868814 0.17229,-0.167746 0.843233,-6.525147 1.490984,-14.127558 1.060744,-12.449504 1.387622,-13.992529 3.290747,-15.533584 1.927997,-1.561194 14.326546,-5.772373 33.097556,-11.241615 8.43501,-2.457679 11.84464,-1.8813 13.29674,2.24774 1.18055,3.356866 -1.23362,8.55881 -4.81328,10.371451 -1.43743,0.72787 -7.9543,2.921863 -14.48194,4.87554 l -11.86845,3.55214 -0.592,7.5887 c -0.32561,4.173786 -0.82167,9.164744 -1.10234,11.09102 l -0.51033,3.502319 3.94803,-1.392944 C 116.58413,75.626825 119.57333,75 121.05537,75 c 3.74609,0 6.7387,3.196365 6.23104,6.655287 -0.47954,3.267301 -1.07089,3.217437 15.68234,1.322386 6.70313,-0.758228 13.22712,-1.386827 14.49777,-1.396885 1.997,-0.01581 2.12412,0.155153 0.9375,1.260814 -0.75502,0.703505 -12.13058,7.518145 -25.27902,15.143639 -13.14844,7.625499 -24.22857,14.143319 -24.62251,14.484039 -0.60951,0.52717 3.92364,47.98557 5.443,56.98384 0.28296,1.67579 0.11146,3.04688 -0.3811,3.04688 -0.49256,0 -3.96541,-5.2574 -7.71744,-11.6831 z M 80.943677,142.71772 c 3.076889,-2.88667 6.192265,-8.98877 6.223234,-12.18947 0.01132,-1.17041 -1.015614,-3.76947 -2.282084,-5.77568 -2.138957,-3.38833 -2.555549,-3.61593 -5.859375,-3.20113 -1.956186,0.2456 -6.269165,0.73527 -9.584398,1.08818 -5.686507,0.60531 -6.07196,0.80083 -6.809706,3.45413 -0.902943,3.24743 -0.138349,9.26097 1.609184,12.65625 1.334511,2.59282 4.833324,6.02336 7.009468,6.8727 2.56193,0.99991 6.925223,-0.30768 9.693677,-2.90497 z"
       id="path3364"
       inkscape:connector-curvature="0" />
    <path
       style="fill:#fcf8a1"
       d="m 105.84463,160.81293 -6.824202,-11.68707 -4.978247,4.70822 c -6.687164,6.32444 -12.029712,8.58315 -21.5246,9.1001 -6.65194,0.36218 -8.287557,0.11883 -12.661956,-1.88384 -6.393201,-2.9269 -10.77991,-7.32415 -13.823918,-13.85713 -2.006104,-4.30546 -2.407904,-6.53993 -2.421571,-13.46667 l -0.01639,-8.30472 -6.09375,0.5949 c -3.351563,0.32718 -8.097656,0.84912 -10.546875,1.15986 -2.449219,0.31074 -4.446629,0.19422 -4.438688,-0.25893 0.008,-0.45315 6.063256,-4.30597 13.45626,-8.56185 10.851184,-6.24661 14.381239,-8.81801 18.316091,-13.34201 2.680847,-3.08223 8.136621,-7.761768 12.123942,-10.398974 l 7.249675,-4.79491 -2.604647,-23.581828 C 67.160439,30.970827 66.652109,31.536344 80.625,55.592315 c 9.384705,16.15687 11.832251,19.764181 12.288617,18.11155 0.313427,-1.135008 0.881486,-6.871711 1.262364,-12.748229 0.809963,-12.496991 1.404497,-14.462163 4.92631,-16.283361 C 102.40653,42.963584 135.52322,32.8125 137.79337,32.8125 c 2.98525,0 5.95663,3.210706 5.95663,6.436393 0,5.386491 -3.54474,7.797065 -18.0921,12.303416 -14.84217,4.597673 -13.60154,3.143296 -14.60157,17.117253 l -0.65396,9.138312 3.97918,-1.403937 c 7.80568,-2.754001 12.55509,-0.777095 12.3864,5.155743 -0.0958,3.368881 -0.63152,3.321991 16.2008,1.417993 6.70312,-0.758228 13.22712,-1.386827 14.49777,-1.396885 1.997,-0.01581 2.12412,0.155153 0.9375,1.260814 -0.75502,0.703505 -12.13058,7.518145 -25.27902,15.143639 -13.14844,7.625499 -24.22857,14.143319 -24.62251,14.484039 -0.60951,0.52717 3.92364,47.98557 5.443,56.98384 0.28296,1.67579 0.11146,3.04688 -0.3811,3.04688 -0.49256,0 -3.96646,-5.25919 -7.71976,-11.68707 z M 80.88956,142.76957 c 3.124128,-2.9322 6.246187,-9.02046 6.277351,-12.24132 0.03188,-3.2959 -4.435639,-9.78286 -6.350558,-9.22119 -0.878682,0.25773 -5.183541,0.76047 -9.566353,1.1172 -4.382813,0.35673 -8.278696,1.11736 -8.657519,1.6903 -1.325241,2.0043 -0.66628,10.43877 1.1236,14.3817 3.539531,7.79723 11.348568,9.74037 17.173479,4.27331 z"
       id="path3362"
       inkscape:connector-curvature="0" />
    <path
       style="fill:#cde130"
       d="m 105.89026,160.7634 -6.765085,-11.73661 -5.030625,4.75776 c -6.406582,6.05908 -12.112665,8.58886 -20.614202,9.13928 -8.172991,0.52915 -14.454533,-1.32668 -19.706421,-5.82211 C 46.81,151.14086 42.284857,138.89887 43.658774,129.73692 l 0.65623,-4.37606 -7.860627,0.64457 c -4.323345,0.3545 -9.231721,0.88276 -10.907502,1.1739 -1.675781,0.29114 -3.03205,0.16598 -3.01393,-0.27812 0.01812,-0.4441 6.219059,-4.36881 13.779866,-8.72155 11.006605,-6.3365 14.941455,-9.18037 19.739359,-14.2664 3.29584,-3.49376 8.701986,-8.063532 12.013657,-10.155047 5.011497,-3.165043 5.945134,-4.152736 5.567501,-5.889852 -0.908151,-4.177515 -5.331785,-48.441059 -5.0337,-50.367963 0.21193,-1.369969 4.068457,4.465763 12.487821,18.896683 6.69966,11.48332 12.269245,20.26123 12.376856,19.506467 0.107612,-0.754764 0.654151,-7.278548 1.214542,-14.497298 0.899803,-11.591063 1.265306,-13.373184 3.127387,-15.248569 1.414988,-1.425092 7.553046,-3.797682 18.661456,-7.213353 21.32913,-6.558397 22.27653,-6.727441 25.06212,-4.471812 3.10273,2.512433 2.96795,6.974468 -0.31415,10.400235 -1.9252,2.00948 -5.66455,3.614929 -15.55776,6.679558 -14.83767,4.596277 -13.6023,3.152494 -14.59727,17.060023 l -0.64968,9.081084 4.47477,-1.346709 C 117.34685,75.606019 120.28275,75 121.40994,75 c 2.9579,0 5.47614,3.224179 5.3403,6.837361 l -0.11554,3.073352 14.72953,-1.631771 c 17.3807,-1.925475 18.27848,-1.970563 17.6071,-0.884248 -0.28288,0.457707 -11.90933,7.463477 -25.83658,15.568384 -13.92724,8.104892 -25.32225,15.023442 -25.32225,15.374542 0,1.12274 5.54418,52.94804 6.00313,56.1155 0.24282,1.67579 0.0811,3.04688 -0.3594,3.04688 -0.44048,0 -3.84517,-5.28147 -7.56597,-11.7366 z M 79.783235,144.14062 c 1.944858,-1.28784 4.253097,-4.24577 5.926641,-7.5948 l 2.741127,-5.48544 -2.272377,-4.19139 c -1.249806,-2.30527 -2.717398,-4.56626 -3.261313,-5.02441 -1.306196,-1.10025 -19.421676,0.93485 -20.324832,2.28331 -1.326229,1.98011 -0.665709,10.42669 1.1236,14.36837 1.973826,4.34814 6.550053,7.74465 10.442154,7.75023 1.341716,0.002 3.872966,-0.94571 5.625,-2.10587 z"
       id="path3360"
       inkscape:connector-curvature="0" />
    <path
       style="fill:#949497"
       d="m 105.89026,160.7634 -6.765085,-11.73661 -5.030625,4.75776 c -6.581342,6.22436 -12.089754,8.61145 -21.103616,9.14535 -6.170927,0.3655 -7.863076,0.10495 -12.193205,-1.87745 -6.388979,-2.92497 -10.775724,-7.31645 -13.844297,-13.85924 -2.042054,-4.35406 -2.421055,-6.48495 -2.421571,-13.61502 l -6.11e-4,-8.45306 -10.740399,1.15016 c -9.48525,1.01575 -12.535248,1.01132 -11.212726,-0.0163 0.214844,-0.16694 6.507812,-3.8418 13.984375,-8.16637 10.706758,-6.19297 15.088742,-9.36392 20.6331,-14.93085 3.871642,-3.8874 9.24142,-8.333625 11.932841,-9.8805 4.476941,-2.57309 4.854998,-3.05191 4.441273,-5.625 -1.17666,-7.318053 -5.198646,-47.868299 -4.947695,-49.88339 0.215139,-1.727536 3.277867,2.858767 12.599512,18.867224 l 12.315282,21.149556 0.549778,-4.910445 c 0.302372,-2.700744 0.829209,-8.918258 1.17074,-13.816695 0.341541,-4.898438 0.967735,-9.835263 1.39155,-10.970723 1.0974,-2.940092 3.876269,-4.1335 23.665789,-10.163447 14.84437,-4.52314 17.97203,-5.200738 19.91639,-4.314826 2.84185,1.29483 4.38951,5.005641 3.28271,7.870871 -1.58245,4.09652 -5.27098,6.167412 -18.05838,10.138712 -10.49605,3.259684 -12.90936,4.339725 -13.28547,5.945703 -0.71537,3.054499 -1.8239,20.24371 -1.30553,20.24371 0.25431,0 2.25595,-0.632813 4.44811,-1.40625 C 117.50466,75.632812 120.2345,75 121.37882,75 c 2.98602,0 5.50778,3.209989 5.37142,6.837361 l -0.11554,3.073352 14.72953,-1.631771 c 17.3807,-1.925475 18.27848,-1.970563 17.6071,-0.884248 -0.28288,0.457707 -11.90933,7.463477 -25.83658,15.568384 -13.92724,8.104892 -25.32225,15.023442 -25.32225,15.374542 0,1.12274 5.54418,52.94804 6.00313,56.1155 0.24282,1.67579 0.0811,3.04688 -0.3594,3.04688 -0.44048,0 -3.84517,-5.28147 -7.56597,-11.7366 z M 82.133048,142.40134 c 1.735942,-1.68255 3.867793,-4.9223 4.737445,-7.19945 1.552212,-4.06441 1.539541,-4.21709 -0.691528,-8.33228 -1.249993,-2.30562 -2.717737,-4.56688 -3.261652,-5.02503 -1.306196,-1.10025 -19.421676,0.93485 -20.324832,2.28331 -1.326229,1.98011 -0.665709,10.42669 1.1236,14.36837 3.70651,8.16507 12.170198,9.95968 18.416967,3.90508 z"
       id="path3358"
       inkscape:connector-curvature="0" />
    <path
       style="fill:#1cc8b6"
       d="m 108.34731,164.201 c -2.5418,-4.45899 -5.6279,-9.72447 -6.858,-11.70106 l -2.236551,-3.59382 -5.094412,4.81809 c -6.644366,6.28397 -12.131958,8.67051 -21.167413,9.20569 -6.170927,0.3655 -7.863076,0.10495 -12.193205,-1.87745 -6.388979,-2.92497 -10.775724,-7.31645 -13.844297,-13.85924 -2.061735,-4.39602 -2.42105,-6.46184 -2.421571,-13.92237 l -6.11e-4,-8.76042 -4.21875,0.53274 c -8.536937,1.07803 -17.330652,1.76281 -16.875,1.31408 0.257812,-0.25389 6.38441,-3.87358 13.61466,-8.04375 10.618727,-6.12452 14.155095,-8.71876 18.395492,-13.49468 2.88727,-3.25191 8.232019,-7.810998 11.877217,-10.13131 3.6452,-2.320313 6.645407,-4.851563 6.667127,-5.625 0.02172,-0.773438 -1.196029,-12.784844 -2.706111,-26.692015 -1.510082,-13.907172 -2.64013,-25.39124 -2.511218,-25.520153 0.128913,-0.128912 5.690411,9.102487 12.358886,20.51422 l 12.1245,20.748605 0.606059,-3.665953 c 0.333329,-2.016275 0.913079,-8.29775 1.288332,-13.958834 0.375243,-5.661083 1.038834,-11.230721 1.474631,-12.376972 1.126781,-2.96365 3.883045,-4.14854 23.687595,-10.183068 14.84437,-4.52314 17.97203,-5.200738 19.91639,-4.314826 2.84185,1.29483 4.38951,5.005641 3.28271,7.870871 -1.58245,4.09652 -5.27098,6.167412 -18.05838,10.138712 -10.49605,3.259684 -12.90936,4.339725 -13.28547,5.945703 -0.71537,3.054499 -1.8239,20.24371 -1.30553,20.24371 0.25431,0 2.25595,-0.632813 4.44811,-1.40625 C 117.50466,75.632812 120.2345,75 121.37882,75 c 3.08131,0 5.50798,3.204846 5.36224,7.081763 l -0.12474,3.317753 5.83247,-0.626876 c 3.20785,-0.344783 10.47308,-1.151881 16.14496,-1.793552 5.67187,-0.641671 10.40916,-1.091094 10.52729,-0.998716 0.11813,0.09237 -11.36801,6.891615 -25.52477,15.109415 l -25.73956,14.941463 -0.0224,3.28125 c -0.0124,1.80469 1.2673,15.24556 2.84365,29.86861 1.57636,14.62304 2.73667,26.7088 2.57846,26.85725 -0.1582,0.14844 -2.36729,-3.37838 -4.90909,-7.83736 z M 82.660209,141.73355 c 1.895776,-2.03237 3.964734,-5.42371 4.597684,-7.53631 1.045095,-3.48822 0.944004,-4.23947 -1.100413,-8.17762 -1.238176,-2.38508 -2.785421,-4.55205 -3.438323,-4.81546 -2.280931,-0.92026 -19.152662,1.32706 -19.999488,2.66395 -1.432451,2.2614 -0.870161,10.51627 0.996412,14.62815 3.896538,8.58368 12.57389,10.06652 18.944128,3.23729 z"
       id="path3356"
       inkscape:connector-curvature="0" />
    <path
       style="fill:#6d6e92"
       d="m 106.0371,160.2851 -6.931641,-12.00835 -4.534059,4.65494 c -9.167923,9.41236 -23.465288,12.8401 -33.807597,8.10523 -6.356321,-2.91002 -10.74637,-7.31067 -13.810371,-13.84371 -2.061735,-4.39602 -2.42105,-6.46184 -2.421571,-13.92237 l -6.11e-4,-8.76042 -4.21875,0.53274 c -8.536937,1.07803 -17.330652,1.76281 -16.875,1.31408 0.257812,-0.25389 6.38441,-3.87358 13.61466,-8.04375 10.618727,-6.12452 14.155095,-8.71876 18.395492,-13.49468 2.88727,-3.25191 8.232019,-7.810998 11.877217,-10.13131 3.6452,-2.320313 6.645407,-4.851563 6.667127,-5.625 0.02172,-0.773438 -1.196029,-12.784844 -2.706111,-26.692015 -1.510082,-13.907172 -2.64013,-25.39124 -2.511218,-25.520153 0.128913,-0.128912 5.690411,9.102487 12.358886,20.51422 l 12.1245,20.748605 0.606059,-3.665953 c 0.333329,-2.016275 0.913079,-8.29775 1.288332,-13.958834 0.375243,-5.661083 1.038834,-11.230721 1.474631,-12.376972 1.124822,-2.958493 3.888335,-4.150154 23.440175,-10.107675 14.34532,-4.371081 17.79836,-5.124624 19.87138,-4.336464 5.00936,1.904556 4.0895,9.732166 -1.53331,13.04777 -1.61512,0.952384 -8.28143,3.339947 -14.81403,5.305693 l -11.87746,3.574083 -0.54441,5.483848 c -0.29943,3.016115 -0.79678,8.015097 -1.10522,11.108847 -0.33929,3.403256 -0.2007,5.625 0.35088,5.625 0.50143,0 2.70526,-0.632813 4.89742,-1.40625 5.33858,-1.883564 7.13128,-1.774971 9.48053,0.574288 1.51953,1.519522 1.86059,2.71976 1.4652,5.15625 -0.61256,3.77473 -2.25674,3.644424 17.64802,1.398655 8.25,-0.930813 15.09464,-1.625711 15.21032,-1.544217 0.27848,0.196188 -50.09416,29.571274 -50.70907,29.571274 -0.26192,0 -0.65398,-1.16016 -0.87125,-2.57812 -1.02872,-6.71342 0.6396,12.25876 3.18294,36.19673 1.55366,14.62304 2.69541,26.70547 2.5372,26.84984 -0.1582,0.14437 -3.40688,-5.14127 -7.21929,-11.74585 z M 82.660209,141.73355 c 1.895776,-2.03237 3.969146,-5.43843 4.607487,-7.56903 1.072916,-3.58107 0.974347,-4.2095 -1.304387,-8.31604 l -2.465008,-4.44223 -6.827276,0.18355 c -3.755001,0.10096 -8.597765,0.43985 -10.761697,0.75309 -3.792063,0.5489 -3.956133,0.71429 -4.534422,4.57059 -1.643939,10.96257 5.082928,20.01125 14.091141,18.95477 2.844894,-0.33365 4.577353,-1.32935 7.194162,-4.1347 z m 20.436071,-1.5773 c 0,-0.51563 -0.40894,-0.30469 -0.90878,0.46875 -0.49984,0.77344 -0.90878,1.82812 -0.90878,2.34375 0,0.51562 0.40894,0.30469 0.90878,-0.46875 0.49984,-0.77344 0.90878,-1.82813 0.90878,-2.34375 z m 2.52461,-11.95313 c -0.26007,-0.64453 -0.47287,-0.11718 -0.47287,1.17188 0,1.28906 0.2128,1.81641 0.47287,1.17187 0.26007,-0.64453 0.26007,-1.69921 0,-2.34375 z m 0.97823,-9.37499 c -0.22345,-1.16016 -0.40628,-0.21094 -0.40628,2.10937 0,2.32031 0.18283,3.26953 0.40628,2.10938 0.22346,-1.16016 0.22346,-3.0586 0,-4.21875 z m -41.98689,0.23437 c 1.05248,-2.20994 1.032968,-2.23986 -0.341762,-0.52394 -0.801882,1.00089 -1.457968,2.23136 -1.457968,2.73438 0,1.19113 0.433031,0.65928 1.79973,-2.21044 z M 71.25,110.15625 c 1.749172,-1.80469 2.969376,-3.28125 2.711563,-3.28125 -0.257812,0 -1.899891,1.47656 -3.649063,3.28125 -1.749172,1.80469 -2.969376,3.28125 -2.711563,3.28125 0.257812,0 1.899891,-1.47656 3.649063,-3.28125 z m 37.22412,-14.765625 c -0.22345,-1.160156 -0.40628,-0.210938 -0.40628,2.109375 0,2.320312 0.18283,3.26953 0.40628,2.109375 0.22346,-1.160156 0.22346,-3.058594 0,-4.21875 z"
       id="path3354"
       inkscape:connector-curvature="0" />
    <path
       style="fill:#4f736c"
       d="m 106.54992,159.64599 c -2.88851,-5.04748 -5.64588,-9.77239 -6.12747,-10.49981 -0.691397,-1.04431 -1.875994,-0.29552 -5.630363,3.55895 -9.397421,9.64797 -23.572332,13.11869 -34.028284,8.33179 -6.358221,-2.91089 -10.748164,-7.31253 -13.806908,-13.84371 -2.002273,-4.27536 -2.442435,-6.66224 -2.562693,-13.89684 -0.07986,-4.80418 -0.292743,-8.88241 -0.473078,-9.06274 -0.180335,-0.18034 -3.869182,0.0683 -8.19744,0.55255 -4.328257,0.48425 -8.032478,0.71753 -8.231603,0.5184 -0.199125,-0.19912 4.335719,-3.05615 10.077432,-6.34894 8.412315,-4.82434 11.674426,-7.35224 16.799209,-13.01814 3.60643,-3.98723 9.449,-9.0483 13.495504,-11.690344 3.924675,-2.562502 7.110456,-5.30469 7.079513,-6.093751 -0.03094,-0.78906 -1.234308,-11.98153 -2.674143,-24.872155 -1.439835,-12.890625 -2.569508,-23.512977 -2.510386,-23.605227 0.05912,-0.09225 5.120649,8.450718 11.247838,18.984375 6.127188,10.533656 11.452319,19.152102 11.833625,19.152102 0.77806,0 1.499765,-5.599467 2.416658,-18.75 0.341541,-4.898438 0.967735,-9.835263 1.39155,-10.970723 1.095478,-2.934958 3.881399,-4.135063 23.418369,-10.088054 14.34532,-4.371081 17.79836,-5.124624 19.87138,-4.336464 5.00936,1.904556 4.0895,9.732166 -1.53331,13.04777 -1.61512,0.952384 -8.28143,3.339947 -14.81403,5.305693 l -11.87746,3.574083 -0.54441,5.483848 c -0.29943,3.016115 -0.79678,8.015097 -1.10522,11.108847 -0.33929,3.403256 -0.2007,5.625 0.35088,5.625 0.50143,0 2.70526,-0.632813 4.89742,-1.40625 5.3376,-1.883213 7.13129,-1.774958 9.4783,0.572051 1.61767,1.617669 1.86877,2.663267 1.37746,5.735765 l -0.60084,3.757463 4.01316,-0.550086 c 9.87955,-1.354196 23.22975,-2.640915 24.16522,-2.329094 0.90044,0.300149 -43.85949,27.032651 -45.26249,27.032651 -0.30045,0 -0.7274,-0.94922 -0.94877,-2.10937 -0.22137,-1.16016 -0.21856,0.5713 0.007,3.84767 0.28091,4.09386 0.0941,5.76259 -0.59727,5.3353 -0.66244,-0.40941 -0.96888,0.7579 -0.89727,3.41794 0.0628,2.33425 0.32912,3.24813 0.63073,2.16471 0.28708,-1.03125 1.66815,8.67187 3.06902,21.5625 1.40088,12.89062 2.43652,23.55945 2.30141,23.70849 -0.1351,0.14905 -2.60898,-3.85877 -5.49749,-8.90625 z M 81.785324,142.80955 c 3.167889,-2.97418 6.287888,-9.04722 6.319087,-12.30003 0.02652,-2.76505 -3.40511,-9.50642 -5.187277,-10.1903 -0.755235,-0.28981 -5.246774,-0.0689 -9.981198,0.49087 -4.734424,0.55979 -8.77225,0.8536 -8.972946,0.6529 -0.200697,-0.20069 0.114425,-1.35026 0.700272,-2.55457 1.024191,-2.10542 1.008282,-2.11856 -0.41348,-0.34157 -0.81326,1.01645 -1.282108,2.36029 -1.041885,2.98631 0.240224,0.62601 -0.06687,1.30608 -0.682438,1.51127 -1.948646,0.64955 -1.38159,11.86664 0.812305,16.06842 3.83895,7.35242 12.659883,9.11048 18.44756,3.6767 z m 21.310956,-2.6533 c 0,-0.51563 -0.40894,-0.30469 -0.90878,0.46875 -0.49984,0.77344 -0.90878,1.82812 -0.90878,2.34375 0,0.51562 0.40894,0.30469 0.90878,-0.46875 0.49984,-0.77344 0.90878,-1.82813 0.90878,-2.34375 z m 2.52461,-11.95313 c -0.26007,-0.64453 -0.47287,-0.11718 -0.47287,1.17188 0,1.28906 0.2128,1.81641 0.47287,1.17187 0.26007,-0.64453 0.26007,-1.69921 0,-2.34375 z M 71.25,110.15625 c 1.749172,-1.80469 2.969376,-3.28125 2.711563,-3.28125 -0.257812,0 -1.899891,1.47656 -3.649063,3.28125 -1.749172,1.80469 -2.969376,3.28125 -2.711563,3.28125 0.257812,0 1.899891,-1.47656 3.649063,-3.28125 z m 37.22412,-14.765625 c -0.22345,-1.160156 -0.40628,-0.210938 -0.40628,2.109375 0,2.320312 0.18283,3.26953 0.40628,2.109375 0.22346,-1.160156 0.22346,-3.058594 0,-4.21875 z"
       id="path3352"
       inkscape:connector-curvature="0" />
    <path
       style="fill:#0102fb"
       d="m 106.54992,159.64599 c -2.88851,-5.04748 -5.64588,-9.77239 -6.12747,-10.49981 -0.691397,-1.04431 -1.875994,-0.29552 -5.630363,3.55895 -9.397421,9.64797 -23.572332,13.11869 -34.028284,8.33179 -6.355985,-2.90986 -10.746052,-7.31034 -13.810983,-13.84371 -2.103743,-4.48447 -2.42157,-6.40607 -2.42157,-14.64106 l 0,-9.4791 -2.34375,0.73123 c -3.659595,1.14177 -15.598945,2.03439 -14.53125,1.08639 2.864761,-2.54357 19.532555,-11.37762 20.462299,-10.84515 0.60511,0.34655 0.835908,0.33331 0.512883,-0.0294 -1.496349,-1.68023 13.712799,-16.753353 21.39495,-21.20359 3.115315,-1.804688 5.475218,-3.77855 5.244231,-4.386361 -0.391708,-1.030724 -5.750054,-48.385712 -5.515917,-48.747547 0.05878,-0.09083 5.359882,8.855267 11.78023,19.880232 6.420349,11.024963 11.76991,19.94884 11.887914,19.830837 0.118003,-0.118004 0.721323,-6.743796 1.34071,-14.723982 0.619388,-7.980186 1.470347,-15.438442 1.891031,-16.573901 1.087013,-2.933978 3.871709,-4.133847 23.412669,-10.088055 14.34532,-4.371081 17.79836,-5.124624 19.87138,-4.336464 5.00936,1.904556 4.0895,9.732166 -1.53331,13.04777 -1.61512,0.952384 -8.28143,3.339947 -14.81403,5.305693 l -11.87746,3.574083 -0.54441,5.483848 c -0.29943,3.016115 -0.79678,8.015097 -1.10522,11.108847 -0.33929,3.403256 -0.2007,5.625 0.35088,5.625 0.50143,0 2.70526,-0.632813 4.89742,-1.40625 5.3376,-1.883213 7.13129,-1.774958 9.4783,0.572051 1.61767,1.617669 1.86877,2.663267 1.37746,5.735765 l -0.60084,3.757463 4.01316,-0.550086 c 9.87955,-1.354196 23.22975,-2.640915 24.16522,-2.329094 0.92635,0.308786 -43.88067,27.032651 -45.32477,27.032651 -0.33469,0 -0.60853,-1.125 -0.60853,-2.5 0,-5.67343 -0.72678,-1.08084 -1.2116,7.65625 -0.28612,5.15625 -0.26861,8.53125 0.0389,7.5 0.30753,-1.03125 1.70531,8.67187 3.10618,21.5625 1.40088,12.89062 2.43652,23.55945 2.30141,23.70849 -0.1351,0.14905 -2.60898,-3.85877 -5.49749,-8.90625 z M 81.788982,142.80955 c 1.556373,-1.45931 3.570418,-4.3408 4.475656,-6.4033 1.760527,-4.0112 3.415399,-12.05984 2.071136,-10.07318 -0.562349,0.83108 -1.260723,0.20288 -2.377141,-2.13826 -0.869468,-1.8233 -2.218456,-3.55976 -2.997752,-3.8588 -0.779295,-0.29904 -5.290521,-0.0857 -10.024945,0.47408 -4.734424,0.55979 -8.77225,0.8536 -8.972946,0.6529 -0.200697,-0.20069 0.133242,-1.29569 0.742086,-2.43333 0.726752,-1.35795 0.757073,-1.85217 0.08827,-1.43883 -1.863975,1.152 -4.07761,10.78755 -3.445966,14.99965 1.817891,12.12256 12.641013,17.53321 20.441598,10.21907 z m 21.307298,-2.6533 c 0,-0.51563 -0.40894,-0.30469 -0.90878,0.46875 -0.49984,0.77344 -0.90878,1.82812 -0.90878,2.34375 0,0.51562 0.40894,0.30469 0.90878,-0.46875 0.49984,-0.77344 0.90878,-1.82813 0.90878,-2.34375 z m 2.52461,-11.95313 c -0.26007,-0.64453 -0.47287,-0.11718 -0.47287,1.17188 0,1.28906 0.2128,1.81641 0.47287,1.17187 0.26007,-0.64453 0.26007,-1.69921 0,-2.34375 z m -15.908711,-9.8259 c -0.237697,-0.91216 -0.447809,-0.39284 -0.466914,1.15403 -0.01911,1.54688 0.175373,2.29318 0.432176,1.65847 0.256803,-0.63472 0.272435,-1.90035 0.03473,-2.8125 z M 71.25,110.15625 c 1.749172,-1.80469 2.969376,-3.28125 2.711563,-3.28125 -0.257812,0 -1.899891,1.47656 -3.649063,3.28125 -1.749172,1.80469 -2.969376,3.28125 -2.711563,3.28125 0.257812,0 1.899891,-1.47656 3.649063,-3.28125 z m 19.399679,-1.15403 c -0.237697,-0.91216 -0.447809,-0.39284 -0.466914,1.15403 -0.01911,1.54688 0.175373,2.29318 0.432176,1.65847 0.256803,-0.63472 0.272435,-1.90034 0.03473,-2.8125 z m 0.92824,-8.8655 c -0.299274,-0.747873 -0.521421,-0.525732 -0.566406,0.56641 -0.04071,0.98827 0.18087,1.54199 0.492394,1.23047 0.311522,-0.31153 0.344829,-1.12013 0.07402,-1.79688 z m 16.896201,-4.746095 c -0.22345,-1.160156 -0.40628,-0.210938 -0.40628,2.109375 0,2.320312 0.18283,3.26953 0.40628,2.109375 0.22346,-1.160156 0.22346,-3.058594 0,-4.21875 z"
       id="path3350"
       inkscape:connector-curvature="0" />
    <path
       style="fill:#00ca01"
       d="m 60.449107,160.9147 c -6.10032,-2.84072 -10.48151,-7.29503 -13.496287,-13.72149 -2.117701,-4.51421 -2.413903,-6.33837 -2.360468,-14.53696 0.07616,-11.68596 2.05977,-17.24808 9.267418,-25.98624 7.843503,-9.509047 19.049152,-16.838309 32.515439,-21.267328 7.332618,-2.411674 6.862524,-1.212656 8.44895,-21.549846 0.587625,-7.533123 1.41196,-14.625599 1.831857,-15.761059 1.084884,-2.93373 3.869264,-4.13354 23.411234,-10.088055 14.34532,-4.37108 17.79836,-5.124623 19.87138,-4.336463 4.68786,1.782325 4.17792,9.443618 -0.84776,12.736576 -1.25512,0.822382 -7.85699,3.207442 -14.67082,5.300135 -6.81384,2.092693 -12.47826,3.885323 -12.58759,3.983622 -0.46376,0.416971 -2.16438,21.480495 -1.7664,21.878467 0.24061,0.240611 2.59447,-0.278964 5.23078,-1.154611 7.89412,-2.622002 12.09954,-0.0566 10.84752,6.61725 -0.73767,3.932077 -4.06094,6.388804 -11.93022,8.819372 l -5.95121,1.838143 -1.5642,19.150417 c -1.69367,20.73544 -3.68845,28.95094 -8.831446,36.37229 -8.244263,11.89647 -25.449931,17.27904 -37.418177,11.70578 z m 21.301696,-18.10515 c 5.20313,-4.94538 6.561464,-9.26423 8.205884,-26.0908 0.554299,-5.67188 1.217664,-11.89453 1.474144,-13.82813 0.618901,-4.665876 -0.864966,-4.628639 -10.646432,0.26714 -8.286542,4.14754 -13.593231,9.29443 -17.208235,16.69004 -2.820573,5.77036 -2.924056,14.14144 -0.2384,19.28505 3.838294,7.35116 12.687892,9.11824 18.413039,3.6767 z"
       id="path3348"
       inkscape:connector-curvature="0" />
  </g>
</svg>
