<?xml version="1.0" encoding="UTF-8" ?>
<!DOCTYPE svg PUBLIC "-//W3C//DTD SVG 1.1//EN" "http://www.w3.org/Graphics/SVG/1.1/DTD/svg11.dtd">
<svg width="206px" height="209px" viewBox="0 0 206 209" version="1.1" xmlns="http://www.w3.org/2000/svg">
<path fill="#ffffff" d=" M 0.00 0.00 L 206.00 0.00 L 206.00 209.00 L 0.00 209.00 L 0.00 0.00 Z" />
<path fill="#01cc01" d=" M 142.10 38.12 C 144.61 37.47 147.23 36.42 149.86 37.03 C 153.59 37.74 155.20 42.54 153.67 45.73 C 152.72 48.51 150.43 50.70 147.68 51.68 C 138.51 54.80 129.08 57.09 119.95 60.36 C 118.98 68.52 118.03 76.70 117.54 84.90 C 122.49 83.85 127.44 80.75 132.62 82.33 C 135.51 84.37 135.52 88.26 135.44 91.44 C 133.20 93.53 131.11 95.97 128.13 96.99 C 124.23 98.30 120.21 99.25 116.32 100.58 C 114.88 106.65 114.05 112.91 114.68 119.15 C 114.80 121.26 114.80 123.38 114.58 125.49 C 112.31 136.78 111.39 148.55 106.07 158.97 C 100.95 167.14 92.57 173.47 82.90 174.88 C 75.09 176.84 66.56 174.57 60.11 169.90 C 53.56 165.18 49.78 157.46 48.44 149.64 C 47.09 143.90 48.29 138.00 49.11 132.29 C 51.13 126.66 53.51 121.10 56.86 116.12 C 63.55 109.02 70.91 102.43 79.63 97.90 C 86.63 93.99 94.72 92.78 101.81 89.08 C 100.16 84.40 97.31 80.32 95.01 75.96 C 97.35 79.44 99.18 83.26 101.87 86.50 C 102.78 75.57 103.57 64.62 104.85 53.73 C 105.42 49.65 109.63 48.05 113.06 46.98 C 122.74 44.02 132.45 41.16 142.10 38.12 Z" />
<path fill="#0001fb" d=" M 73.33 38.04 C 79.98 50.99 88.04 63.17 95.01 75.96 C 97.31 80.32 100.16 84.40 101.81 89.08 C 94.72 92.78 86.63 93.99 79.63 97.90 C 77.83 86.32 77.27 74.59 75.62 62.99 C 75.14 54.64 73.47 46.41 73.33 38.04 Z" />
<path fill="#0001fb" d=" M 142.00 90.42 C 151.38 89.27 160.79 88.37 170.18 87.30 C 155.26 96.36 140.03 104.89 125.03 113.81 C 121.68 115.77 118.42 117.97 114.68 119.15 C 114.05 112.91 114.88 106.65 116.32 100.58 C 120.21 99.25 124.23 98.30 128.13 96.99 C 131.11 95.97 133.20 93.53 135.44 91.44 C 137.20 89.89 139.86 90.79 142.00 90.42 Z" />
<path fill="#0001fb" d=" M 70.65 123.74 C 77.51 114.51 88.17 107.83 99.58 106.22 C 99.83 111.66 98.29 116.96 98.40 122.39 C 97.79 128.93 97.73 135.56 95.81 141.90 C 93.88 137.06 91.11 132.61 88.10 128.38 C 81.30 129.01 74.57 130.34 67.74 130.72 C 67.36 128.03 69.30 125.85 70.65 123.74 Z" />
<path fill="#0001fb" d=" M 32.30 130.43 C 40.52 125.72 48.72 120.97 56.86 116.12 C 53.51 121.10 51.13 126.66 49.11 132.29 C 45.53 133.44 41.79 133.52 38.08 133.72 C 34.72 134.46 31.27 134.73 27.83 134.45 C 28.72 132.54 30.59 131.47 32.30 130.43 Z" />
<path fill="#0001fb" d=" M 106.07 158.97 C 111.39 148.55 112.31 136.78 114.58 125.49 C 115.96 129.25 115.21 133.33 116.15 137.18 C 116.98 146.25 118.09 155.29 119.02 164.35 C 119.63 170.96 120.86 177.52 120.59 184.19 C 116.22 175.52 111.04 167.30 106.07 158.97 Z" />
<path fill="#ffffff" d=" M 67.74 130.72 C 74.57 130.34 81.30 129.01 88.10 128.38 C 91.11 132.61 93.88 137.06 95.81 141.90 C 95.30 147.56 92.18 153.19 87.61 156.62 C 84.16 159.40 79.47 159.04 75.34 158.62 C 70.46 156.98 66.80 152.55 65.54 147.62 C 63.73 142.08 64.63 136.06 66.88 130.79 L 67.74 130.72 Z" />
</svg>

