<?xml version="1.0" encoding="UTF-8" ?>
<!DOCTYPE svg PUBLIC "-//W3C//DTD SVG 1.1//EN" "http://www.w3.org/Graphics/SVG/1.1/DTD/svg11.dtd">
<svg width="161px" height="164px" viewBox="0 0 161 164" version="1.1" xmlns="http://www.w3.org/2000/svg">
<path fill="#ffffff" d=" M 0.00 0.00 L 161.00 0.00 L 161.00 164.00 L 0.00 164.00 L 0.00 0.00 Z" />
<path fill="#01cc01" d=" M 125.10 11.12 C 127.61 10.47 130.23 9.41 132.86 10.04 C 136.60 10.74 138.18 15.55 136.66 18.74 C 135.65 21.79 132.98 24.03 129.95 24.95 C 121.01 27.87 111.87 30.21 102.99 33.32 C 102.06 41.50 100.95 49.68 100.55 57.91 C 105.50 56.84 110.45 53.74 115.62 55.33 C 118.51 57.38 118.53 61.27 118.44 64.46 C 116.23 66.53 114.16 68.95 111.21 69.98 C 107.33 71.33 103.30 72.25 99.41 73.59 C 97.79 79.69 97.08 86.05 97.65 92.35 C 97.75 94.13 97.80 95.92 97.63 97.70 C 95.53 109.28 94.41 121.29 89.09 131.99 C 83.93 140.12 75.58 146.48 65.90 147.88 C 58.32 149.79 50.07 147.69 43.70 143.32 C 36.82 138.64 32.80 130.70 31.44 122.65 C 30.16 116.87 31.30 110.92 32.01 105.17 C 34.26 99.66 36.52 94.08 39.86 89.12 C 46.55 82.03 53.90 75.43 62.63 70.90 C 69.61 66.97 77.72 65.81 84.79 62.08 C 83.18 57.39 80.29 53.32 78.01 48.96 C 80.33 52.44 82.19 56.22 84.80 59.49 C 85.87 48.58 86.53 37.62 87.85 26.73 C 88.42 22.64 92.63 21.05 96.06 19.98 C 105.74 17.02 115.45 14.16 125.10 11.12 Z" />
<path fill="#0001fb" d=" M 56.33 11.05 C 62.98 24.00 71.05 36.17 78.01 48.96 C 80.29 53.32 83.18 57.39 84.79 62.08 C 77.72 65.81 69.61 66.97 62.63 70.90 C 60.83 59.32 60.27 47.60 58.62 35.99 C 58.14 27.65 56.46 19.42 56.33 11.05 Z" />
<path fill="#0001fb" d=" M 125.00 63.42 C 134.38 62.26 143.78 61.37 153.17 60.30 C 139.09 68.88 124.69 76.95 110.50 85.36 C 106.27 87.78 102.21 90.55 97.65 92.35 C 97.08 86.05 97.79 79.69 99.41 73.59 C 103.30 72.25 107.33 71.33 111.21 69.98 C 114.16 68.95 116.23 66.53 118.44 64.46 C 120.19 62.88 122.86 63.80 125.00 63.42 Z" />
<path fill="#0001fb" d=" M 79.63 79.55 C 80.61 79.41 81.58 79.30 82.57 79.23 C 82.86 84.67 81.30 89.96 81.40 95.39 C 80.77 101.92 80.78 108.56 78.80 114.87 C 76.85 110.06 74.13 105.59 71.09 101.39 C 64.29 102.00 57.56 103.33 50.73 103.73 C 50.36 101.54 51.73 99.69 52.82 97.94 C 58.98 88.64 69.01 82.47 79.63 79.55 Z" />
<path fill="#0001fb" d=" M 15.30 103.43 C 23.52 98.72 31.72 93.97 39.86 89.12 C 36.52 94.08 34.26 99.66 32.01 105.17 C 28.50 106.50 24.77 106.51 21.08 106.71 C 17.72 107.45 14.29 107.74 10.86 107.45 C 11.67 105.51 13.61 104.49 15.30 103.43 Z" />
<path fill="#0001fb" d=" M 89.09 131.99 C 94.41 121.29 95.53 109.28 97.63 97.70 C 99.74 113.91 101.12 130.26 103.03 146.52 C 103.74 150.03 103.50 153.63 103.59 157.18 C 99.22 148.53 94.04 140.31 89.09 131.99 Z" />
<path fill="#ffffff" d=" M 50.73 103.73 C 57.56 103.33 64.29 102.00 71.09 101.39 C 74.13 105.59 76.85 110.06 78.80 114.87 C 78.33 120.55 75.17 126.18 70.61 129.62 C 67.16 132.40 62.47 132.03 58.34 131.63 C 53.39 129.95 49.72 125.43 48.49 120.42 C 46.75 114.94 47.65 109.00 49.88 103.80 L 50.73 103.73 Z" />
</svg>
