<?xml version="1.0" encoding="UTF-8" standalone="no"?>
<!-- Created with Inkscape (http://www.inkscape.org/) -->

<svg
   xmlns:dc="http://purl.org/dc/elements/1.1/"
   xmlns:cc="http://creativecommons.org/ns#"
   xmlns:rdf="http://www.w3.org/1999/02/22-rdf-syntax-ns#"
   xmlns:svg="http://www.w3.org/2000/svg"
   xmlns="http://www.w3.org/2000/svg"
   xmlns:sodipodi="http://sodipodi.sourceforge.net/DTD/sodipodi-0.dtd"
   xmlns:inkscape="http://www.inkscape.org/namespaces/inkscape"
   id="svg3408"
   version="1.1"
   inkscape:version="0.91 r13725"
   width="193.125"
   height="205.3125"
   viewBox="0 0 193.125 205.3125"
   sodipodi:docname="favorit_icon4.svg">
  <metadata
     id="metadata3414">
    <rdf:RDF>
      <cc:Work
         rdf:about="">
        <dc:format>image/svg+xml</dc:format>
        <dc:type
           rdf:resource="http://purl.org/dc/dcmitype/StillImage" />
        <dc:title></dc:title>
      </cc:Work>
    </rdf:RDF>
  </metadata>
  <defs
     id="defs3412" />
  <sodipodi:namedview
     pagecolor="#ffffff"
     bordercolor="#666666"
     borderopacity="1"
     objecttolerance="10"
     gridtolerance="10"
     guidetolerance="10"
     inkscape:pageopacity="0"
     inkscape:pageshadow="2"
     inkscape:window-width="1318"
     inkscape:window-height="819"
     id="namedview3410"
     showgrid="false"
     inkscape:zoom="1.1494673"
     inkscape:cx="96.5625"
     inkscape:cy="102.65625"
     inkscape:window-x="0"
     inkscape:window-y="0"
     inkscape:window-maximized="0"
     inkscape:current-layer="svg3408" />
  <g
     id="g3418"
     transform="translate(8.6996845,-0.8699661)"
     inkscape:export-xdpi="90"
     inkscape:export-ydpi="90">
    <path
       style="fill:#dbdbdb"
       d="M 72.65625,203.47131 C 63.501862,201.04694 57.934449,198.4824 49.179652,192.65715 9.7019569,166.3896 -5.6165921,106.65259 14.913746,59.032044 26.985699,31.030898 47.918405,12.025269 74.53125,4.9029584 82.98543,2.6403932 100.60357,2.9318823 110.06064,5.4907861 128.40142,10.453448 146.95667,24.298982 157.98378,41.25 c 12.7684,19.627771 18.25873,38.652823 18.26194,63.28125 0.003,20.8116 -3.85714,37.02902 -12.89206,54.1667 -11.65456,22.10669 -33.58299,40.24307 -54.60366,45.16112 -8.764359,2.05054 -27.652988,1.84761 -36.09375,-0.38776 z"
       id="path3436"
       inkscape:connector-curvature="0" />
    <path
       style="fill:#a4a4f1"
       d="M 72.334074,203.34981 C 47.460329,196.66969 25.081837,175.32477 14.039367,147.74752 3.1102693,120.45338 3.2412601,87.837234 14.389797,60.492006 25.659211,32.850289 47.474824,12.328398 72.891578,5.4595282 82.4935,2.864612 98.887491,2.6951075 108.28125,5.0936191 134.63834,11.823383 157.448,33.407261 168.61854,62.188423 c 6.15305,15.853472 7.16593,21.92653 7.14015,42.811577 -0.0258,20.91997 -1.29178,27.89511 -7.959,43.85164 -11.58492,27.72595 -33.63588,48.30302 -58.49653,54.58656 -10.111572,2.55571 -27.276448,2.51467 -36.969086,-0.0884 z m 36.783036,-4.17447 c 8.21394,-2.21676 16.62362,-6.49169 24.73945,-12.57594 12.1851,-9.13489 19.29165,-17.64826 26.19671,-31.38268 8.65885,-17.22279 11.74895,-30.52745 11.77202,-50.68547 0.0227,-19.788461 -3.16092,-33.683422 -11.52894,-50.31897 C 153.00644,39.720012 143.27569,28.480166 130.55797,19.861929 117.32304,10.893192 107.94475,8.0144884 91.875,7.9880384 77.983063,7.9651731 72.799914,9.078366 61.40625,14.53186 43.003788,23.340066 30.687597,36.31923 20.505743,57.634021 13.681729,71.91948 11.160265,82.657145 10.593878,99.84375 c -0.8576452,26.02457 5.063997,47.4621 18.51589,67.03125 9.191493,13.37133 24.429776,25.41792 38.767817,30.64782 11.318539,4.12851 29.382856,4.85237 41.239525,1.65252 z m -3.27016,-38.35844 -6.821872,-11.68309 -3.14564,3.67497 c -1.808166,2.11243 -5.810872,4.9872 -9.414058,6.76122 -5.113321,2.51754 -7.62314,3.14828 -13.620157,3.42288 -9.165067,0.41966 -14.342768,-1.37526 -20.452359,-7.09006 -6.334503,-5.92519 -8.666359,-11.84227 -8.739962,-22.17764 L 43.59375,125.4191 37.5,126.01535 c -3.351563,0.32793 -8.097656,0.85049 -10.546875,1.16123 -2.449219,0.31074 -4.446969,0.19422 -4.439446,-0.25893 0.0075,-0.45315 5.597368,-3.98796 12.421875,-7.85515 9.973483,-5.65159 13.886327,-8.51322 19.9413,-14.58395 4.143207,-4.15398 10.068151,-9.117419 13.166542,-11.029853 l 5.633437,-3.477156 -2.61286,-23.657645 C 67.159427,30.960947 66.649813,31.53243 80.625,55.592121 87.070312,66.688375 92.609033,75.278119 92.93327,74.68044 93.257505,74.08276 93.808087,68.742187 94.156791,62.8125 94.919869,49.836234 95.897719,46.323698 99.218709,44.629501 103.00342,42.698742 135.73568,32.8125 138.34351,32.8125 c 2.78204,0 6.03149,3.05554 6.03149,5.671556 0,3.072692 -2.62945,7.31299 -5.4065,8.71861 -1.40924,0.713296 -7.90305,2.895366 -14.43069,4.849043 l -11.86845,3.55214 -0.592,7.5887 c -0.32561,4.173786 -0.81731,9.13899 -1.09268,11.033788 l -0.50065,3.445088 4.43823,-1.335713 c 6.05638,-1.822702 8.48281,-1.680635 10.79552,0.632075 1.37005,1.370038 1.84654,2.793947 1.56863,4.6875 -0.47954,3.267301 -1.07089,3.217437 15.68234,1.322386 6.70313,-0.758228 13.22712,-1.386827 14.49777,-1.396885 1.997,-0.01581 2.12412,0.155153 0.9375,1.260814 -0.75502,0.703505 -12.13058,7.518145 -25.27902,15.143639 -13.14844,7.625499 -24.22857,14.143319 -24.62251,14.484039 -0.60951,0.52717 3.92364,47.98557 5.443,56.98384 0.28296,1.67579 0.11146,3.04688 -0.3811,3.04688 -0.49256,0 -3.96541,-5.2574 -7.71744,-11.6831 z M 78.392405,144.72817 c 3.723071,-1.76671 6.396273,-5.19526 8.33497,-10.69012 1.317952,-3.73547 1.274252,-4.07094 -1.046065,-8.03026 -1.331812,-2.27256 -2.697907,-4.27958 -3.035768,-4.46005 -0.337861,-0.18046 -4.803626,0.13575 -9.923924,0.7027 -9.218067,1.02068 -9.317317,1.05848 -10.090956,3.84331 -1.517066,5.46092 0.74506,13.12521 5.014637,16.99005 3.846318,3.48171 6.136701,3.83215 10.747106,1.64437 z"
       id="path3434"
       inkscape:connector-curvature="0" />
    <path
       style="fill:#c8d546"
       d="M 75.383907,203.9211 C 62.796112,201.18227 49.491152,193.92306 37.887735,183.46311 25.506612,172.30209 14.4671,152.56617 9.2963637,132.34879 6.8220114,122.67416 5.7134512,106.51448 6.6811051,94.225716 9.6129103,56.993087 30.577178,24.162223 60.302216,10.252958 78.456613,1.7579524 102.19798,1.4446319 120.48248,9.4587441 c 11.5563,5.0651389 26.19227,16.9569799 34.54406,28.0673029 9.33289,12.415486 17.34915,31.99998 19.82708,48.439439 7.28277,48.316514 -14.64164,94.839174 -53.11059,112.698394 -4.31023,2.00102 -10.87318,4.31557 -14.58435,5.14343 -8.116689,1.81061 -23.719309,1.86648 -31.774773,0.11379 z m 30.358743,-3.84821 c 13.51628,-2.7863 24.60362,-9.04461 36.99184,-20.88024 16.4491,-15.71538 26.61793,-38.01692 29.0366,-63.68095 C 175.93598,71.318824 155.44792,30.745383 120.46875,13.915337 110.00214,8.8793835 101.43154,7.2385282 88.125,7.7230776 79.190138,8.048435 75.947894,8.6026638 69.193207,10.959277 42.273375,20.351214 21.579136,44.800508 13.004421,77.34375 10.99799,84.958668 10.78736,87.654908 10.843923,105 c 0.0685,21.0054 0.727655,24.92029 6.88351,40.88296 10.575813,27.42399 33.730933,48.87881 58.589527,54.28723 7.908215,1.72058 20.814218,1.67789 29.42569,-0.0973 z m 0.12558,-39.21955 -6.800599,-11.64666 -4.092872,4.21126 c -5.824987,5.99346 -13.033391,9.10157 -22.149892,9.55053 -9.140016,0.45011 -14.30746,-1.33686 -20.432003,-7.06565 -6.334503,-5.92519 -8.666359,-11.84227 -8.739962,-22.17764 L 43.59375,125.4191 37.5,126.01535 c -3.351563,0.32793 -8.097656,0.85049 -10.546875,1.16123 -2.449219,0.31074 -4.446969,0.19422 -4.439446,-0.25893 0.0075,-0.45315 5.597368,-3.98796 12.421875,-7.85515 9.973483,-5.65159 13.886327,-8.51322 19.9413,-14.58395 4.143207,-4.15398 10.068151,-9.117419 13.166542,-11.029853 l 5.633437,-3.477156 -2.61286,-23.657645 C 67.159427,30.960947 66.649813,31.53243 80.625,55.592121 87.070312,66.688375 92.609033,75.278119 92.93327,74.68044 93.257505,74.08276 93.808087,68.742187 94.156791,62.8125 94.919869,49.836234 95.897719,46.323698 99.218709,44.629501 102.64751,42.880306 135.61786,32.8125 137.91738,32.8125 c 1.02044,0 2.93126,1.075917 4.24627,2.390928 1.86372,1.86371 2.25302,2.94902 1.76552,4.921875 -1.2676,5.129842 -4.58668,7.210055 -18.29905,11.468816 l -13.02029,4.043813 -0.48509,3.352909 c -0.2668,1.8441 -0.75328,6.788071 -1.08108,10.986604 l -0.59599,7.633694 5.14546,-1.432164 c 2.83,-0.787691 6.17258,-1.174375 7.42794,-0.859298 2.61216,0.655613 4.80519,4.675463 3.97599,7.28805 -0.69485,2.189257 -0.21102,2.200464 15.97169,0.369946 6.70312,-0.758228 13.22712,-1.386827 14.49777,-1.396885 1.997,-0.01581 2.12412,0.155153 0.9375,1.260814 -0.75502,0.703505 -12.13058,7.518145 -25.27902,15.143639 -13.14844,7.625499 -24.22857,14.143319 -24.62251,14.484039 -0.60951,0.52717 3.92364,47.98557 5.443,56.98384 0.28296,1.67579 0.11146,3.04688 -0.3811,3.04688 -0.49256,0 -3.95584,-5.241 -7.69616,-11.64666 z M 78.392405,144.72817 c 3.730748,-1.77036 6.396617,-5.19624 8.34857,-10.72866 1.349788,-3.82571 1.313903,-4.05909 -1.270878,-8.26507 -1.462938,-2.38051 -3.046092,-4.30975 -3.518117,-4.28722 -0.472027,0.0225 -4.961668,0.38838 -9.976981,0.81297 l -9.118751,0.772 -0.603319,3.21597 c -1.332605,7.10339 1.949185,15.84413 6.973409,18.57302 3.266525,1.7742 5.274127,1.75383 9.166067,-0.093 z"
       id="path3432"
       inkscape:connector-curvature="0" />
    <path
       style="fill:#979799"
       d="M 75.383907,203.9211 C 62.796112,201.18227 49.491152,193.92306 37.887735,183.46311 25.506612,172.30209 14.4671,152.56617 9.2963637,132.34879 6.8220114,122.67416 5.7134512,106.51448 6.6811051,94.225716 9.6129103,56.993087 30.577178,24.162223 60.302216,10.252958 78.456613,1.7579524 102.19798,1.4446319 120.48248,9.4587441 c 11.5563,5.0651389 26.19227,16.9569799 34.54406,28.0673029 9.33289,12.415486 17.34915,31.99998 19.82708,48.439439 7.28277,48.316514 -14.64164,94.839174 -53.11059,112.698394 -4.31023,2.00102 -10.87318,4.31557 -14.58435,5.14343 -8.116689,1.81061 -23.719309,1.86648 -31.774773,0.11379 z m 30.358743,-3.84821 c 13.51628,-2.7863 24.60362,-9.04461 36.99184,-20.88024 16.4491,-15.71538 26.61793,-38.01692 29.0366,-63.68095 C 175.93598,71.318824 155.44792,30.745383 120.46875,13.915337 110.00214,8.8793835 101.43154,7.2385282 88.125,7.7230776 79.190138,8.048435 75.947894,8.6026638 69.193207,10.959277 42.273375,20.351214 21.579136,44.800508 13.004421,77.34375 10.99799,84.958668 10.78736,87.654908 10.843923,105 c 0.0685,21.0054 0.727655,24.92029 6.88351,40.88296 10.575813,27.42399 33.730933,48.87881 58.589527,54.28723 7.908215,1.72058 20.814218,1.67789 29.42569,-0.0973 z m 0.12558,-39.21955 -6.800599,-11.64666 -4.092872,4.21126 c -8.755489,9.00873 -23.840775,12.36661 -34.216647,7.61638 -6.350507,-2.90737 -10.74113,-7.30938 -13.805292,-13.84111 -2.0801,-4.43407 -2.42157,-6.43827 -2.42157,-14.21306 0,-4.97811 -0.210938,-8.73279 -0.46875,-8.34374 -0.578349,0.87275 -20.629532,3.17156 -21.353032,2.44806 -0.287082,-0.28708 -0.346186,-0.67109 -0.131343,-0.85335 1.795573,-1.52326 25.905912,-14.98112 26.83931,-14.98112 0.664161,0 1.026502,-0.18107 0.805203,-0.40236 -0.834248,-0.83425 14.271031,-14.871499 18.902939,-17.56639 3.72506,-2.16728 4.745684,-3.242647 4.448879,-4.6875 -0.934256,-4.547991 -5.23769,-48.465705 -4.967845,-50.698208 0.240475,-1.989505 2.63988,1.56776 12.15185,18.015861 6.518716,11.272166 12.04028,21.127659 12.270144,21.901097 0.46244,1.555997 1.260139,-5.182019 2.219783,-18.75 0.759337,-10.736036 1.390462,-12.631533 4.791402,-14.390225 3.0288,-1.566256 36.33045,-11.859775 38.3688,-11.859775 0.75027,0 2.44005,1.075917 3.75506,2.390928 1.86372,1.86371 2.25302,2.94902 1.76552,4.921875 -1.2676,5.129842 -4.58668,7.210055 -18.29905,11.468816 l -13.02029,4.043813 -0.48509,3.352909 c -0.2668,1.8441 -0.76297,6.897543 -1.10262,11.229873 -0.53376,6.808596 -0.42508,7.803116 0.80135,7.332494 4.7913,-1.838595 9.24333,-2.72402 11.21213,-2.229885 2.59984,0.65252 4.78881,4.677638 3.96146,7.284404 -0.69485,2.189257 -0.21102,2.200464 15.97169,0.369946 6.70312,-0.758228 13.22712,-1.386827 14.49777,-1.396885 1.997,-0.01581 2.12412,0.155153 0.9375,1.260814 -0.75502,0.703505 -12.13058,7.518145 -25.27902,15.143639 -13.14844,7.625499 -24.22857,14.143319 -24.62251,14.484039 -0.60951,0.52717 3.92364,47.98557 5.443,56.98384 0.28296,1.67579 0.11146,3.04688 -0.3811,3.04688 -0.49256,0 -3.95584,-5.241 -7.69616,-11.64666 z M 82.660209,141.73355 c 1.895776,-2.03237 3.957482,-5.39951 4.581568,-7.48252 1.062236,-3.54543 0.95696,-4.07652 -1.648433,-8.31604 -1.530725,-2.4908 -3.169339,-4.5103 -3.641364,-4.48777 -0.472027,0.0225 -4.961668,0.38838 -9.976981,0.81297 l -9.118752,0.772 -0.603318,3.21597 c -0.826543,4.40585 0.259412,10.38861 2.561918,14.11414 4.354914,7.0464 12.003424,7.63411 17.845362,1.37125 z"
       id="path3430"
       inkscape:connector-curvature="0" />
    <path
       style="fill:#6161f6"
       d="M 75.383907,203.9211 C 62.796112,201.18227 49.491152,193.92306 37.887735,183.46311 25.506612,172.30209 14.4671,152.56617 9.2963637,132.34879 6.8220114,122.67416 5.7134512,106.51448 6.6811051,94.225716 9.6129103,56.993087 30.577178,24.162223 60.302216,10.252958 78.456613,1.7579524 102.19798,1.4446319 120.48248,9.4587441 c 11.5563,5.0651389 26.19227,16.9569799 34.54406,28.0673029 9.33289,12.415486 17.34915,31.99998 19.82708,48.439439 7.28277,48.316514 -14.64164,94.839174 -53.11059,112.698394 -4.31023,2.00102 -10.87318,4.31557 -14.58435,5.14343 -8.116689,1.81061 -23.719309,1.86648 -31.774773,0.11379 z m 30.358743,-3.84821 c 13.51628,-2.7863 24.60362,-9.04461 36.99184,-20.88024 16.4491,-15.71538 26.61793,-38.01692 29.0366,-63.68095 C 175.93598,71.318824 155.44792,30.745383 120.46875,13.915337 110.00214,8.8793835 101.43154,7.2385282 88.125,7.7230776 79.190138,8.048435 75.947894,8.6026638 69.193207,10.959277 42.273375,20.351214 21.579136,44.800508 13.004421,77.34375 10.99799,84.958668 10.78736,87.654908 10.843923,105 c 0.0685,21.0054 0.727655,24.92029 6.88351,40.88296 10.575813,27.42399 33.730933,48.87881 58.589527,54.28723 7.908215,1.72058 20.814218,1.67789 29.42569,-0.0973 z m 2.06523,-36.67468 c -2.8334,-4.92514 -5.90058,-10.19324 -6.81596,-11.70689 l -1.664339,-2.75211 -4.222847,4.34499 c -5.917244,6.0884 -13.114492,9.23277 -22.153417,9.67852 -6.117621,0.30169 -7.957724,0.0107 -12.193205,-1.9284 -6.350507,-2.90737 -10.74113,-7.30938 -13.805292,-13.84111 -2.078778,-4.43124 -2.42157,-6.43999 -2.42157,-14.19027 0,-8.76134 -0.05776,-9.00636 -1.953145,-8.28573 -1.07423,0.40842 -5.925793,1.01921 -10.78125,1.35731 l -8.828105,0.61474 12.65625,-7.54718 c 6.960937,-4.15094 13.078125,-7.58368 13.59375,-7.62829 0.515625,-0.0446 2.952359,-2.57987 5.414964,-5.63389 3.758271,-4.66084 15.295944,-14.033536 18.65234,-15.152334 0.628682,-0.209562 -0.04666,-9.545041 -1.947836,-26.925695 -1.600595,-14.632704 -2.762792,-26.752297 -2.582661,-26.932428 0.329779,-0.329779 23.106652,38.247407 24.14559,40.895382 0.595768,1.518453 1.331909,-4.346986 2.347241,-18.702325 0.759337,-10.736036 1.390462,-12.631533 4.791402,-14.390225 3.0288,-1.566256 36.33045,-11.859775 38.3688,-11.859775 0.75027,0 2.44005,1.075917 3.75506,2.390928 1.86372,1.86371 2.25302,2.94902 1.76552,4.921875 -1.2676,5.129842 -4.58668,7.210055 -18.29905,11.468816 l -13.02029,4.043813 -0.48509,3.352909 c -0.2668,1.8441 -0.76297,6.897543 -1.10262,11.229873 -0.53376,6.808596 -0.42508,7.803116 0.80135,7.332494 4.7913,-1.838595 9.24333,-2.72402 11.21213,-2.229885 2.75784,0.692175 4.68679,4.557928 3.87944,7.774674 -0.58159,2.317231 -0.50986,2.35385 3.51124,1.792522 7.29311,-1.018084 28.46943,-3.182311 28.71687,-2.934873 0.13202,0.132031 -11.19128,6.914357 -25.16291,15.071835 -13.97163,8.157479 -25.63876,15.446239 -25.92694,16.197249 -0.28819,0.75102 0.84334,14.21656 2.51452,29.92346 1.67118,15.70688 2.89298,28.70351 2.7151,28.88139 -0.17788,0.17787 -2.64165,-3.70625 -5.47504,-8.63137 z M 82.660209,141.73355 c 1.895776,-2.03237 3.969146,-5.43843 4.607487,-7.56903 1.072734,-3.58046 0.974143,-4.21019 -1.301985,-8.31604 l -2.462606,-4.44223 -4.954678,0.0952 c -2.725072,0.0523 -7.366714,0.39741 -10.31476,0.76677 -5.203241,0.6519 -5.377991,0.76701 -5.97207,3.93373 -0.834546,4.4485 0.242414,10.42133 2.55325,14.16034 4.354914,7.0464 12.003424,7.63411 17.845362,1.37125 z"
       id="path3428"
       inkscape:connector-curvature="0" />
    <path
       style="fill:#32c1b9"
       d="M 79.528927,204.3533 C 62.713958,201.51577 48.304145,193.5828 35.052634,179.86794 4.7931409,148.55044 -2.4198318,95.429006 17.931152,53.773249 33.791249,21.309741 63.451791,2.2188511 95.15625,4.0676227 c 16.37159,0.9546711 27.79187,5.2390328 41.50124,15.5693503 19.36854,14.594638 32.30357,36.320126 37.38802,62.796403 2.24265,11.678133 2.05582,34.357604 -0.37896,46.004124 -6.81904,32.61814 -27.84645,60.13445 -54.51667,71.34008 -11.06926,4.65081 -27.756011,6.57792 -39.620953,4.57572 z m 23.136513,-3.28737 c 33.97683,-5.92506 61.29051,-36.57106 68.49113,-76.84718 1.77564,-9.93184 1.72256,-30.085397 -0.10527,-39.974561 C 167.4445,64.73016 158.59968,46.123464 146.6325,32.874775 141.17639,26.834395 129.24324,17.78198 121.75139,14.000104 109.57405,7.8530016 93.259267,5.419547 80.126742,7.791521 64.823914,10.555492 52.41161,17.112813 40.090008,28.942609 22.913886,45.433162 12.766491,67.46756 10.173922,93.903422 4.9805494,146.85908 38.448475,196.36605 82.96875,201.58417 c 8.97585,1.05203 10.997062,0.99885 19.69669,-0.51824 z m 6.06055,-36.1805 c -2.3071,-4.12849 -4.07882,-7.93237 -3.93713,-8.45306 0.14167,-0.52071 -0.17474,-0.67954 -0.70313,-0.35297 -0.5284,0.32657 -0.96231,0.25246 -0.96424,-0.16469 -0.002,-0.41715 -0.85634,-2.15729 -1.89871,-3.86698 l -1.895199,-3.10852 -4.222847,4.34499 c -5.917244,6.0884 -13.114492,9.23277 -22.153417,9.67852 -6.117621,0.30169 -7.957724,0.0107 -12.193205,-1.9284 -6.350507,-2.90737 -10.74113,-7.30938 -13.805292,-13.84111 -2.071583,-4.41591 -2.42157,-6.44918 -2.42157,-14.06821 l 0,-8.90625 -2.656543,-0.10379 c -1.889677,-0.0739 -2.29562,0.14761 -1.40625,0.76711 0.809145,0.56362 -0.666087,0.73723 -4.181076,0.49204 -3.034489,-0.21168 -4.896236,-0.0394 -4.21875,0.3904 0.716204,0.45436 -0.898217,0.76861 -3.943631,0.76764 l -5.15625,-0.002 4.64416,-2.73378 c 2.554288,-1.50358 5.045253,-2.48588 5.535477,-2.18291 0.490224,0.30297 0.620557,0.11276 0.28963,-0.42269 -0.592303,-0.95836 4.734344,-3.74571 6.241042,-3.26583 0.425045,0.13537 0.524388,-0.15582 0.220762,-0.6471 -0.541615,-0.87635 2.947844,-2.53895 4.466738,-2.12824 0.425045,0.11494 0.523958,-0.19368 0.219807,-0.68581 -0.304153,-0.49212 0.824646,-1.41613 2.50844,-2.05334 1.733743,-0.65611 5.120066,-3.63066 7.808264,-6.85877 2.708819,-3.25287 7.79714,-7.714469 11.851483,-10.391754 l 7.104662,-4.691306 -0.132732,-7.631842 c -0.073,-4.197511 -0.493379,-7.414803 -0.934169,-7.149537 -0.440789,0.265268 -0.651727,-1.639637 -0.46875,-4.233121 0.182978,-2.593484 -0.02796,-4.491921 -0.46875,-4.21875 -0.440789,0.273172 -0.651727,-1.625266 -0.46875,-4.21875 0.182978,-2.593484 -0.02572,-4.49331 -0.463756,-4.221836 -0.438043,0.271474 -0.648981,-1.838269 -0.46875,-4.688316 0.180231,-2.850047 0.07116,-5.02238 -0.242378,-4.827405 -0.601218,0.373868 -1.977858,-11.887515 -1.399589,-12.465783 0.489472,-0.489473 6.485881,10.316041 6.494025,11.702215 0.0037,0.644531 0.218919,0.959841 0.478072,0.700687 0.756843,-0.756843 6.617122,10.177508 6.020064,11.232487 -0.298024,0.526599 -0.199841,0.64791 0.218186,0.269583 0.949654,-0.859468 9.915437,14.359741 9.170005,15.565873 -0.299281,0.484247 -0.05708,0.57943 0.538206,0.211519 0.658422,-0.406928 1.082351,-0.03527 1.082351,0.948898 0,0.889806 0.201173,1.416654 0.447052,1.170776 0.245879,-0.245878 0.938892,-6.749784 1.540035,-14.453125 0.601144,-7.70334 1.436532,-14.935086 1.856429,-16.070545 0.419887,-1.13546 1.942584,-2.674236 3.383774,-3.419503 3.0288,-1.566256 36.33045,-11.859775 38.3688,-11.859775 0.75027,0 2.44005,1.075917 3.75506,2.390928 1.86372,1.86371 2.25302,2.94902 1.76552,4.921875 -1.2676,5.129842 -4.58668,7.210055 -18.29905,11.468816 l -13.02029,4.043813 -0.48509,3.352909 c -0.2668,1.8441 -0.76297,6.897543 -1.10262,11.229873 -0.53376,6.808596 -0.42508,7.803116 0.80135,7.332494 4.7913,-1.838595 9.24333,-2.72402 11.21213,-2.229885 2.69049,0.675271 4.69244,4.535426 3.92922,7.576322 -0.44512,1.773502 -0.11045,2.250067 1.84225,2.62335 1.43888,0.275058 2.15818,0.08723 1.81187,-0.473122 -0.36528,-0.59103 1.36605,-0.768359 4.75661,-0.487186 3.32322,0.275586 4.87424,0.122853 4.11832,-0.405543 -0.75961,-0.530969 0.81644,-0.706085 4.21875,-0.46875 2.98725,0.208381 4.9479,0.08007 4.35699,-0.285127 -0.5909,-0.365201 1.6056,-0.869817 4.88113,-1.121368 3.27553,-0.251552 6.08018,-0.356496 6.23256,-0.233209 0.48511,0.392498 -10.53974,6.374748 -11.76143,6.381926 -0.64453,0.0037 -0.95984,0.218919 -0.70068,0.478072 0.75684,0.756843 -10.17751,6.617124 -11.23249,6.020068 -0.52659,-0.298031 -0.63995,-0.191878 -0.25189,0.235875 0.86478,0.95325 -9.69439,7.082489 -10.90859,6.332069 -0.47735,-0.29502 -0.58567,-0.0797 -0.24071,0.47846 0.59958,0.97013 -2.75967,2.69113 -4.39157,2.24986 -0.42504,-0.11494 -0.53587,0.17439 -0.24629,0.64295 0.53873,0.87169 -4.91981,3.58896 -6.31621,3.14421 -0.42504,-0.13538 -0.52439,0.15582 -0.22076,0.6471 0.49234,0.79663 -2.86108,2.54047 -4.23876,2.20423 -0.29965,-0.0731 -0.641,2.24423 -0.75855,5.14971 -0.11755,2.90548 -0.4649,5.6891 -0.7719,6.18584 -0.32289,0.52245 -0.0605,0.59556 0.62249,0.17345 0.90432,-0.5589 1.10279,0.37396 0.84797,3.98574 -0.18297,2.59349 0.0257,4.49331 0.46376,4.22184 0.43804,-0.27148 0.64898,1.83826 0.46875,4.68832 -0.18023,2.85004 0.033,4.95802 0.47374,4.6844 0.44079,-0.27362 0.65173,1.62446 0.46875,4.21794 -0.18297,2.59349 0.0279,4.49193 0.46875,4.21875 0.44079,-0.27317 0.65173,1.62527 0.46875,4.21875 -0.18297,2.59349 -0.0759,4.55613 0.23787,4.36144 0.57004,-0.35366 2.09706,14.58146 1.54709,15.13142 -0.15986,0.15986 -2.17829,-3.08719 -4.4854,-7.21568 z M 82.660209,141.73355 c 1.895776,-2.03237 3.969146,-5.43843 4.607487,-7.56903 1.070824,-3.5741 0.972028,-4.2175 -1.276957,-8.31604 -2.239003,-4.08036 -2.780462,-4.48332 -6.646638,-4.94659 -2.466447,-0.29553 -3.987492,-0.14583 -3.67389,0.36158 0.314926,0.50956 -1.658728,0.68399 -4.795763,0.42384 -2.953036,-0.24488 -4.790038,-0.0989 -4.118317,0.3272 0.80555,0.51104 0.361419,0.77409 -1.323025,0.78364 -2.158103,0.0122 -2.628543,0.50954 -3.15957,3.34016 -0.845574,4.5073 0.219144,10.46664 2.541311,14.22399 4.354914,7.0464 12.003424,7.63411 17.845362,1.37125 z"
       id="path3426"
       inkscape:connector-curvature="0" />
    <path
       style="fill:#6d6d92"
       d="M 79.528927,204.3533 C 62.713958,201.51577 48.304145,193.5828 35.052634,179.86794 4.7931409,148.55044 -2.4198318,95.429006 17.931152,53.773249 33.791249,21.309741 63.451791,2.2188511 95.15625,4.0676227 c 16.37159,0.9546711 27.79187,5.2390328 41.50124,15.5693503 19.36854,14.594638 32.30357,36.320126 37.38802,62.796403 2.24265,11.678133 2.05582,34.357604 -0.37896,46.004124 -6.81904,32.61814 -27.84645,60.13445 -54.51667,71.34008 -11.06926,4.65081 -27.756011,6.57792 -39.620953,4.57572 z m 23.136513,-3.28737 c 33.97683,-5.92506 61.29051,-36.57106 68.49113,-76.84718 1.77564,-9.93184 1.72256,-30.085397 -0.10527,-39.974561 C 167.4445,64.73016 158.59968,46.123464 146.6325,32.874775 141.17639,26.834395 129.24324,17.78198 121.75139,14.000104 109.57405,7.8530016 93.259267,5.419547 80.126742,7.791521 64.823914,10.555492 52.41161,17.112813 40.090008,28.942609 22.913886,45.433162 12.766491,67.46756 10.173922,93.903422 4.9805494,146.85908 38.448475,196.36605 82.96875,201.58417 c 8.97585,1.05203 10.997062,0.99885 19.69669,-0.51824 z m 6.06055,-36.1805 c -2.3071,-4.12849 -4.07882,-7.93237 -3.93713,-8.45306 0.14167,-0.52071 -0.0859,-0.73444 -0.50574,-0.47497 -0.41983,0.25946 -1.74962,-1.38742 -2.95508,-3.65975 l -2.191765,-4.1315 -4.333763,4.61313 c -8.863216,9.43458 -23.638525,13.019 -34.038709,8.25764 -6.355985,-2.90986 -10.746052,-7.31034 -13.810983,-13.84371 -2.071583,-4.41591 -2.42157,-6.44918 -2.42157,-14.06821 l 0,-8.90625 -2.656543,-0.10379 c -1.889677,-0.0739 -2.29562,0.14761 -1.40625,0.76711 0.809145,0.56362 -0.666087,0.73723 -4.181076,0.49204 -3.034489,-0.21168 -4.896236,-0.0394 -4.21875,0.3904 0.716204,0.45436 -0.898217,0.76861 -3.943631,0.76764 l -5.15625,-0.002 4.64416,-2.73378 c 2.554288,-1.50358 5.045253,-2.48588 5.535477,-2.18291 0.490224,0.30297 0.620557,0.11276 0.28963,-0.42269 -0.592303,-0.95836 4.734344,-3.74571 6.241042,-3.26583 0.425045,0.13537 0.524388,-0.15582 0.220762,-0.6471 -0.541615,-0.87635 2.947844,-2.53895 4.466738,-2.12824 0.425045,0.11494 0.523958,-0.19368 0.219807,-0.68581 -0.304153,-0.49212 0.824646,-1.41613 2.50844,-2.05334 1.733743,-0.65611 5.120066,-3.63066 7.808264,-6.85877 2.708819,-3.25287 7.79714,-7.714469 11.851483,-10.391754 l 7.104662,-4.691306 -0.132732,-7.631842 c -0.073,-4.197511 -0.493379,-7.414803 -0.934169,-7.149537 -0.440789,0.265268 -0.651727,-1.639637 -0.46875,-4.233121 0.182978,-2.593484 -0.02796,-4.491921 -0.46875,-4.21875 -0.440789,0.273172 -0.651727,-1.625266 -0.46875,-4.21875 0.182978,-2.593484 -0.02572,-4.49331 -0.463756,-4.221836 -0.438043,0.271474 -0.648981,-1.838269 -0.46875,-4.688316 0.180231,-2.850047 0.07116,-5.02238 -0.242378,-4.827405 -0.601218,0.373868 -1.977858,-11.887515 -1.399589,-12.465783 0.489472,-0.489473 6.485881,10.316041 6.494025,11.702215 0.0037,0.644531 0.218919,0.959841 0.478072,0.700687 0.756843,-0.756843 6.617122,10.177508 6.020064,11.232487 -0.298024,0.526599 -0.199841,0.64791 0.218186,0.269583 0.949654,-0.859468 9.915437,14.359741 9.170005,15.565873 -0.299281,0.484247 -0.05708,0.57943 0.538206,0.211519 0.658422,-0.406928 1.082351,-0.03527 1.082351,0.948898 0,0.889806 0.201173,1.416654 0.447052,1.170776 0.245879,-0.245878 0.938892,-6.749784 1.540035,-14.453125 0.601144,-7.70334 1.436532,-14.935086 1.856429,-16.070545 1.086778,-2.938865 3.864114,-4.131971 23.658654,-10.163448 14.68261,-4.473851 17.98579,-5.194467 19.8717,-4.335187 3.04582,1.387765 3.88189,5.187379 2.00671,9.119668 -1.87384,3.929473 -3.87176,4.933005 -18.59277,9.338898 l -11.86845,3.55214 -0.592,7.5887 c -0.32561,4.173786 -0.82268,9.170732 -1.10459,11.104326 -0.57872,3.969306 -0.30476,4.078814 5.27723,2.109375 5.33858,-1.883564 7.13128,-1.774971 9.48053,0.574288 1.49874,1.498731 1.85894,2.72987 1.48069,5.06077 -0.45779,2.821019 -0.2736,3.113437 2.18871,3.474826 1.56058,0.229046 2.45646,0.01908 2.13537,-0.500467 -0.33809,-0.547037 1.51964,-0.723169 4.77775,-0.45298 3.32322,0.275586 4.87424,0.122853 4.11832,-0.405543 -0.75961,-0.530969 0.81644,-0.706085 4.21875,-0.46875 2.98725,0.208381 4.9479,0.08007 4.35699,-0.285127 -0.5909,-0.365201 1.6056,-0.869817 4.88113,-1.121368 3.27553,-0.251552 6.08018,-0.356496 6.23256,-0.233209 0.48511,0.392498 -10.53974,6.374748 -11.76143,6.381926 -0.64453,0.0037 -0.95984,0.218919 -0.70068,0.478072 0.75684,0.756843 -10.17751,6.617125 -11.23249,6.020068 -0.52659,-0.298031 -0.63995,-0.191878 -0.25189,0.235875 0.86478,0.95325 -9.69439,7.082499 -10.90859,6.332069 -0.47735,-0.29502 -0.58567,-0.0797 -0.24071,0.47846 0.59958,0.97013 -2.75967,2.69113 -4.39157,2.24986 -0.42504,-0.11494 -0.53587,0.17439 -0.24629,0.64295 0.53873,0.87169 -4.91981,3.58896 -6.31621,3.14421 -0.42504,-0.13538 -0.56377,0.0921 -0.30828,0.5055 0.2555,0.4134 -0.68329,1.41039 -2.08619,2.21555 -2.52787,1.4508 -2.55266,1.43842 -2.7676,-1.38241 -0.11929,-1.56549 -0.47274,-3.07937 -0.78544,-3.3642 -0.31271,-0.28483 -0.21476,3.06807 0.21766,7.45088 0.43243,4.38281 0.8068,10.14331 0.83195,12.8011 0.0251,2.6578 0.40411,4.61085 0.84215,4.34012 0.43804,-0.27072 0.64898,1.83963 0.46875,4.68969 -0.18023,2.85004 0.033,4.95802 0.47374,4.6844 0.44079,-0.27362 0.65173,1.62446 0.46875,4.21794 -0.18297,2.59349 0.0279,4.49192 0.46875,4.21875 0.44079,-0.27317 0.65173,1.62527 0.46875,4.21875 -0.18297,2.59349 -0.0759,4.55613 0.23787,4.36144 0.57004,-0.35366 2.09706,14.58146 1.54709,15.13142 -0.15986,0.15986 -2.17829,-3.08719 -4.4854,-7.21568 z M 82.660209,141.73355 c 1.895776,-2.03237 3.969146,-5.43843 4.607487,-7.56903 1.070824,-3.5741 0.972028,-4.2175 -1.276957,-8.31604 -2.239003,-4.08036 -2.780462,-4.48332 -6.646638,-4.94659 -2.466447,-0.29553 -3.987492,-0.14583 -3.67389,0.36158 0.314926,0.50956 -1.658728,0.68399 -4.795763,0.42384 -2.953036,-0.24488 -4.790038,-0.0989 -4.118317,0.3272 0.840323,0.5331 0.565002,0.77369 -0.896756,0.78364 -2.332355,0.0158 -2.603678,-0.96068 -1.120157,-4.03166 0.932339,-1.93 0.90858,-1.94747 -0.4132,-0.3039 -0.771331,0.95911 -1.857411,3.86539 -2.413511,6.45839 -1.572257,7.33119 0.185873,13.99034 4.795292,18.16282 3.024407,2.73771 4.421953,3.17316 8.758248,2.72889 2.888185,-0.2959 4.537532,-1.23109 7.194162,-4.07914 z m 20.436071,-1.5773 c 0,-0.51563 -0.40894,-0.30469 -0.90878,0.46875 -0.49984,0.77344 -0.90878,1.82812 -0.90878,2.34375 0,0.51562 0.40894,0.30469 0.90878,-0.46875 0.49984,-0.77344 0.90878,-1.82813 0.90878,-2.34375 z m 2.52461,-11.95313 c -0.26007,-0.64453 -0.47287,-0.11718 -0.47287,1.17188 0,1.28906 0.2128,1.81641 0.47287,1.17187 0.26007,-0.64453 0.26007,-1.69921 0,-2.34375 z m 1.45088,-8.22493 c -0.58953,-4.01671 -1.13659,-3.43363 -1.11992,1.19369 0.008,2.38992 0.31752,3.50669 0.77194,2.79069 0.41666,-0.65652 0.57325,-2.44949 0.34798,-3.98438 z M 71.25,110.15625 c 1.749172,-1.80469 2.969376,-3.28125 2.711563,-3.28125 -0.257812,0 -1.899891,1.47656 -3.649063,3.28125 -1.749172,1.80469 -2.969376,3.28125 -2.711563,3.28125 0.257812,0 1.899891,-1.47656 3.649063,-3.28125 z m 37.22412,-14.765625 c -0.22345,-1.160156 -0.40628,-0.210938 -0.40628,2.109375 0,2.320312 0.18283,3.26953 0.40628,2.109375 0.22346,-1.160156 0.22346,-3.058594 0,-4.21875 z"
       id="path3424"
       inkscape:connector-curvature="0" />
    <path
       style="fill:#0304fc"
       d="M 79.528927,204.3533 C 62.713958,201.51577 48.304145,193.5828 35.052634,179.86794 4.7931409,148.55044 -2.4198318,95.429006 17.931152,53.773249 33.791249,21.309741 63.451791,2.2188511 95.15625,4.0676227 c 16.37159,0.9546711 27.79187,5.2390328 41.50124,15.5693503 19.36854,14.594638 32.30357,36.320126 37.38802,62.796403 2.24265,11.678133 2.05582,34.357604 -0.37896,46.004124 -6.81904,32.61814 -27.84645,60.13445 -54.51667,71.34008 -11.06926,4.65081 -27.756011,6.57792 -39.620953,4.57572 z m 23.136513,-3.28737 c 33.97683,-5.92506 61.29051,-36.57106 68.49113,-76.84718 1.77564,-9.93184 1.72256,-30.085397 -0.10527,-39.974561 C 167.4445,64.73016 158.59968,46.123464 146.6325,32.874775 141.17639,26.834395 129.24324,17.78198 121.75139,14.000104 109.57405,7.8530016 93.259267,5.419547 80.126742,7.791521 64.823914,10.555492 52.41161,17.112813 40.090008,28.942609 22.913886,45.433162 12.766491,67.46756 10.173922,93.903422 4.9805494,146.85908 38.448475,196.36605 82.96875,201.58417 c 8.97585,1.05203 10.997062,0.99885 19.69669,-0.51824 z m 3.25859,-42.65154 C 102.62557,152.75523 99.681075,148.125 99.3807,148.125 c -0.300384,0 -2.110172,1.87108 -4.021772,4.15796 -7.934136,9.49177 -24.066801,13.57399 -34.595125,8.75396 -6.355985,-2.90986 -10.746052,-7.31034 -13.810983,-13.84371 -2.089657,-4.45444 -2.42157,-6.42562 -2.42157,-14.38133 l 0,-9.21936 -5.15625,0.5749 c -2.835938,0.31619 -6.84375,0.82169 -8.90625,1.12334 -2.0625,0.30164 -3.467423,0.25283 -3.122049,-0.10849 0.345373,-0.36131 5.45711,-3.4681 11.359415,-6.90397 8.612618,-5.01362 11.688234,-7.40375 15.577271,-12.10542 4.043446,-4.88836 12.054144,-11.415077 19.274788,-15.70413 1.470133,-0.873258 1.409478,-2.501536 -0.885134,-23.761718 -1.354881,-12.553319 -2.334803,-23.431355 -2.177606,-24.173413 0.157198,-0.742057 5.101064,6.909965 10.98637,17.004494 5.885305,10.094529 10.999711,18.538577 11.365345,18.764551 0.71311,0.440728 1.396566,-5.035568 2.401238,-19.240164 0.346453,-4.898438 0.976678,-9.835263 1.400493,-10.970723 1.0974,-2.940092 3.876269,-4.1335 23.665789,-10.163447 14.68261,-4.473851 17.98579,-5.194468 19.8717,-4.335187 3.04582,1.387765 3.88189,5.187379 2.00671,9.119668 -1.87384,3.929473 -3.87176,4.933005 -18.59277,9.338898 l -11.86845,3.55214 -0.592,7.5887 c -0.32561,4.173786 -0.82268,9.170732 -1.10459,11.104326 -0.57872,3.969306 -0.30476,4.078814 5.27723,2.109375 5.3376,-1.883213 7.13129,-1.774958 9.4783,0.572051 1.60044,1.600435 1.86692,2.674843 1.39517,5.625 -0.368,2.301384 -0.21825,3.646699 0.40595,3.646699 0.54398,0 6.92543,-0.654791 14.18098,-1.455092 7.25556,-0.800301 13.33496,-1.312044 13.5098,-1.137207 0.33561,0.335608 -45.03438,26.967299 -45.94173,26.967299 -0.29066,0 -0.52847,-1.125 -0.52847,-2.5 0,-5.44594 -0.72467,-1.21545 -1.31149,7.65625 -0.34106,5.15625 -0.27075,8.85521 0.15627,8.21992 0.44696,-0.66499 1.79276,8.48385 3.17186,21.5625 1.3175,12.49467 2.32721,22.81265 2.24377,22.92885 -0.0834,0.11619 -2.85043,-4.41897 -6.14888,-10.07813 z M 81.750803,142.80955 c 1.535375,-1.45931 3.40056,-3.81923 4.144859,-5.24427 1.510056,-2.89115 3.28576,-11.18693 2.258678,-10.55216 -0.361823,0.22362 -1.359567,-1.06492 -2.217209,-2.86341 -0.857642,-1.7985 -2.188405,-3.51138 -2.957251,-3.80642 -0.768847,-0.29503 -5.304628,-0.13538 -10.079516,0.35477 -4.774887,0.49016 -8.821263,0.78068 -8.991945,0.64561 -0.170682,-0.13507 0.168996,-1.23094 0.754843,-2.43525 0.990577,-2.03632 0.966959,-2.06754 -0.337244,-0.44583 -1.976986,2.45829 -3.538678,10.54201 -2.812514,14.55831 1.045999,5.78525 4.655848,10.96037 8.798996,12.61433 3.02961,1.20944 8.654989,-0.18024 11.438303,-2.82568 z m 21.345477,-2.6533 c 0,-0.51563 -0.40894,-0.30469 -0.90878,0.46875 -0.49984,0.77344 -0.90878,1.82812 -0.90878,2.34375 0,0.51562 0.40894,0.30469 0.90878,-0.46875 0.49984,-0.77344 0.90878,-1.82813 0.90878,-2.34375 z m 2.52461,-11.95313 c -0.26007,-0.64453 -0.47287,-0.11718 -0.47287,1.17188 0,1.28906 0.2128,1.81641 0.47287,1.17187 0.26007,-0.64453 0.26007,-1.69921 0,-2.34375 z M 71.25,110.15625 c 1.749172,-1.80469 2.969376,-3.28125 2.711563,-3.28125 -0.257812,0 -1.899891,1.47656 -3.649063,3.28125 -1.749172,1.80469 -2.969376,3.28125 -2.711563,3.28125 0.257812,0 1.899891,-1.47656 3.649063,-3.28125 z m 37.22412,-14.765625 c -0.22345,-1.160156 -0.40628,-0.210938 -0.40628,2.109375 0,2.320312 0.18283,3.26953 0.40628,2.109375 0.22346,-1.160156 0.22346,-3.058594 0,-4.21875 z"
       id="path3422"
       inkscape:connector-curvature="0" />
    <path
       style="fill:#01ca01"
       d="m 60.449107,160.9147 c -6.10032,-2.84073 -10.48151,-7.29503 -13.496287,-13.72149 -2.129466,-4.53929 -2.419683,-6.35559 -2.405923,-15.05721 0.01462,-9.24703 0.213029,-10.29106 3.02875,-15.9375 C 54.023158,103.26914 67.917802,91.859497 84.04508,86.251473 L 92.621409,83.26918 93.60996,76.087716 C 94.153659,72.137909 94.884019,64.6875 95.232984,59.53125 95.581941,54.375 96.216656,49.227237 96.643453,48.091777 c 1.105481,-2.941029 3.885517,-4.134664 23.671217,-10.163447 14.68261,-4.473851 17.98579,-5.194468 19.8717,-4.335187 3.04582,1.387765 3.88189,5.187379 2.00671,9.119668 -1.87552,3.933026 -3.86719,4.931596 -18.67745,9.364415 -10.27394,3.075061 -11.9567,3.849936 -11.97854,5.51584 -0.014,1.066002 -0.41183,5.934848 -0.88414,10.81966 -0.47232,4.884811 -0.69915,9.041075 -0.50409,9.236141 0.19508,0.195066 2.51167,-0.361772 5.14798,-1.237419 7.89412,-2.622002 12.09954,-0.0566 10.84752,6.61725 -0.73767,3.932077 -4.06094,6.388804 -11.93022,8.819372 l -5.95121,1.838143 -1.55693,19.016267 c -1.71841,20.98856 -3.59607,28.75724 -8.772528,36.29567 -8.34662,12.1551 -25.358382,17.56327 -37.484365,11.91655 z m 21.339875,-18.10515 c 4.558323,-4.27406 6.09091,-9.00867 7.686896,-23.74705 0.809621,-7.47656 1.654108,-14.96484 1.876638,-16.64063 0.547767,-4.124986 -1.083298,-4.011417 -10.568117,0.73589 -12.33486,6.17379 -19.273291,15.77781 -19.247507,26.64197 0.01773,7.46853 3.483765,13.72297 8.775608,15.8355 3.020183,1.20567 8.657256,-0.18226 11.476482,-2.82568 z"
       id="path3420"
       inkscape:connector-curvature="0" />
  </g>
</svg>
